<svg xmlns="http://www.w3.org/2000/svg" viewBox="0 0 50 42.86"><g data-name="Camada 2"><path d="M49.79 28.57a.28.28 0 0 1 .17 0V2.23C50 1.45 49.43 0 48.44 0h-47C.57 0 0 1.24 0 2.11v31.46c0 .62 1.16 2.06 2.1 2.06a.57.57 0 0 1 .25.08h17.86v3.93c0 1-1.36 2.31-2.35 2.14v1.08h14.28v-1l-.09-.09a2.48 2.48 0 0 1-2.14-1.48 6.74 6.74 0 0 1-.17-.75v-3.83h17.78a3 3 0 0 0 2.48-2.6v-4.5a.35.35 0 0 1-.21-.04zM25 33.28a1.08 1.08 0 0 1-1.12-1.16A1 1 0 0 1 25 31a1.07 1.07 0 0 1 1.15 1.11A1.1 1.1 0 0 1 25 33.28zm23.19-5.49H1.89V1.9h46.26z" fill="#101010" data-name="Layer 1"/></g></svg>