<svg xmlns="http://www.w3.org/2000/svg" viewBox="0 0 1280 261"><linearGradient id="a" gradientUnits="userSpaceOnUse" x1="619.022" y1="-107.031" x2="619.022" y2="259.652"><stop offset="0" stop-color="#fff"/><stop offset="1" stop-color="#f4f4f4"/></linearGradient><path d="M-105.5 248c109-85 283-196 485-178s487 242 642 178c190.3-78.6 322-355 322-355" fill="none" stroke="url(#a)" stroke-width=".305" stroke-miterlimit="10"/><linearGradient id="b" gradientUnits="userSpaceOnUse" x1="620.164" y1="-101.818" x2="620.164" y2="258.336"><stop offset="0" stop-color="#fff"/><stop offset="1" stop-color="#f4f4f4"/></linearGradient><path d="M-104 247.2C3.7 163.3 177.8 55.5 379.5 73.4c17.9 1.6 36.3 4.7 55.3 9.2 195.5 45.3 442.5 221.5 584.3 164.4 105.3-42 191.3-141 249.5-223.8 48-68.3 75.6-124.9 75.6-124.9" fill="none" stroke="url(#b)" stroke-width=".305" stroke-miterlimit="10"/><linearGradient id="c" gradientUnits="userSpaceOnUse" x1="621.307" y1="-96.605" x2="621.307" y2="256.888"><stop offset="0" stop-color="#fff"/><stop offset="1" stop-color="#f4f4f4"/></linearGradient><path d="M-102.5 246.4C3.8 163.6 178.1 59 379.5 76.7c17.8 1.6 36.2 4.7 55.1 9 195 44.5 439.6 215.5 582.2 160 106.4-41.4 192-136.9 251.3-218.8 48.7-67.2 76.9-123.5 76.9-123.5" fill="none" stroke="url(#c)" stroke-width=".305" stroke-miterlimit="10"/><linearGradient id="d" gradientUnits="userSpaceOnUse" x1="622.449" y1="-91.392" x2="622.449" y2="255.51"><stop offset="0" stop-color="#fff"/><stop offset="1" stop-color="#f4f4f4"/></linearGradient><path d="M-100.9 245.6C4 163.9 178.4 62.5 379.5 80.1c17.7 1.6 36.1 4.6 54.9 8.9 194.6 43.7 436.9 209.7 580.1 155.7 107.6-40.6 192.7-132.8 253.2-213.9 49.3-66.1 78.2-122.1 78.2-122.1" fill="none" stroke="url(#d)" stroke-width=".305" stroke-miterlimit="10"/><linearGradient id="e" gradientUnits="userSpaceOnUse" x1="623.592" y1="-86.179" x2="623.592" y2="254.135"><stop offset="0" stop-color="#fff"/><stop offset="1" stop-color="#f4f4f4"/></linearGradient><path d="M-99.4 244.7C4.2 164.2 178.7 66 379.5 83.4c17.7 1.5 35.9 4.6 54.7 8.7 194.1 42.9 434.1 204 578 151.4 108.8-39.8 193.4-128.8 255-208.9 50-65 79.4-120.7 79.4-120.7" fill="none" stroke="url(#e)" stroke-width=".305" stroke-miterlimit="10"/><linearGradient id="f" gradientUnits="userSpaceOnUse" x1="624.735" y1="-80.966" x2="624.735" y2="252.764"><stop offset="0" stop-color="#fff"/><stop offset="1" stop-color="#f4f4f4"/></linearGradient><path d="M-97.9 243.9C4.3 164.5 179 69.5 379.5 86.8c17.6 1.5 35.8 4.5 54.4 8.6 193.7 42 431.3 198.3 575.9 147 110-39 194.1-124.7 256.8-203.9 50.6-63.9 80.7-119.4 80.7-119.4" fill="none" stroke="url(#f)" stroke-width=".305" stroke-miterlimit="10"/><linearGradient id="g" gradientUnits="userSpaceOnUse" x1="625.877" y1="-75.754" x2="625.877" y2="251.395"><stop offset="0" stop-color="#fff"/><stop offset="1" stop-color="#f4f4f4"/></linearGradient><path d="M-96.4 243.1C4.5 164.8 179.3 73 379.5 90.2c17.5 1.5 35.7 4.4 54.2 8.4 193.2 41.2 428.6 192.5 573.8 142.7 111.2-38.2 194.8-120.7 258.7-199 51.2-62.8 82-118 82-118" fill="none" stroke="url(#g)" stroke-width=".305" stroke-miterlimit="10"/><linearGradient id="h" gradientUnits="userSpaceOnUse" x1="627.019" y1="-70.541" x2="627.019" y2="250.03"><stop offset="0" stop-color="#fff"/><stop offset="1" stop-color="#f4f4f4"/></linearGradient><path d="M-94.9 242.3C4.7 165.1 179.6 76.5 379.5 93.5c17.5 1.5 35.5 4.4 54 8.3 192.7 40.4 425.8 186.8 571.6 138.4 112.5-37.4 195.5-116.6 260.5-194 51.9-61.7 83.2-116.6 83.2-116.6" fill="none" stroke="url(#h)" stroke-width=".305" stroke-miterlimit="10"/><linearGradient id="i" gradientUnits="userSpaceOnUse" x1="628.162" y1="-65.328" x2="628.162" y2="248.667"><stop offset="0" stop-color="#fff"/><stop offset="1" stop-color="#f4f4f4"/></linearGradient><path d="M-93.4 241.5C4.8 165.4 179.8 80 379.5 96.9c17.4 1.5 35.4 4.3 53.8 8.1 192.3 39.6 423.1 181.1 569.5 134 113.7-36.6 196.1-112.5 262.4-189.1 52.5-60.6 84.5-115.2 84.5-115.2" fill="none" stroke="url(#i)" stroke-width=".305" stroke-miterlimit="10"/><linearGradient id="j" gradientUnits="userSpaceOnUse" x1="629.304" y1="-60.115" x2="629.304" y2="247.309"><stop offset="0" stop-color="#fff"/><stop offset="1" stop-color="#f4f4f4"/></linearGradient><path d="M-91.8 240.6C5 165.7 180.1 83.5 379.5 100.2c17.3 1.5 35.2 4.2 53.6 8 191.8 38.7 420.4 175.4 567.4 129.7 114.9-35.7 196.8-108.5 264.2-184.1 53-59.5 85.7-113.8 85.7-113.8" fill="none" stroke="url(#j)" stroke-width=".305" stroke-miterlimit="10"/><linearGradient id="k" gradientUnits="userSpaceOnUse" x1="630.447" y1="-54.902" x2="630.447" y2="245.973"><stop offset="0" stop-color="#fff"/><stop offset="1" stop-color="#f4f4f4"/></linearGradient><path d="M-90.3 239.8C5.2 166 180.4 87 379.5 103.6c17.3 1.4 35.1 4.2 53.3 7.9 191.3 38.3 417.7 169.7 565.3 125.4 116.1-34.9 197.4-104.4 266.1-179.1 53.7-58.4 87-112.5 87-112.5" fill="none" stroke="url(#k)" stroke-width=".305" stroke-miterlimit="10"/><linearGradient id="l" gradientUnits="userSpaceOnUse" x1="631.589" y1="-49.69" x2="631.589" y2="244.622"><stop offset="0" stop-color="#fff"/><stop offset="1" stop-color="#f4f4f4"/></linearGradient><path d="M-88.8 239C5.3 166.3 180.7 90.5 379.5 106.9c17.2 1.4 35 4.1 53.1 7.7 190.8 37.5 414.9 164 563.2 121 117.4-34.1 198.1-100.3 267.9-174.2C1317.9 4 1352-49.7 1352-49.7" fill="none" stroke="url(#l)" stroke-width=".305" stroke-miterlimit="10"/><linearGradient id="m" gradientUnits="userSpaceOnUse" x1="632.732" y1="-44.477" x2="632.732" y2="243.275"><stop offset="0" stop-color="#fff"/><stop offset="1" stop-color="#f4f4f4"/></linearGradient><path d="M-87.3 238.2C5.5 166.6 181 94 379.5 110.3c17.2 1.4 34.8 4.1 52.9 7.6 190.3 36.7 412.2 158.4 561.1 116.7 118.6-33.2 198.7-96.3 269.8-169.2C1318 9 1352.7-44.4 1352.7-44.4" fill="none" stroke="url(#m)" stroke-width=".305" stroke-miterlimit="10"/><linearGradient id="n" gradientUnits="userSpaceOnUse" x1="633.874" y1="-39.264" x2="633.874" y2="241.931"><stop offset="0" stop-color="#fff"/><stop offset="1" stop-color="#f4f4f4"/></linearGradient><path d="M-85.8 237.4C5.7 166.9 181.3 97.5 379.5 113.6c17.1 1.4 34.7 4 52.7 7.4C622 157 841.6 273.8 991.1 233.4c119.8-32.4 199.3-92.2 271.6-164.3 55.4-55.2 90.8-108.3 90.8-108.3" fill="none" stroke="url(#n)" stroke-width=".305" stroke-miterlimit="10"/><linearGradient id="o" gradientUnits="userSpaceOnUse" x1="635.016" y1="-34.051" x2="635.016" y2="240.591"><stop offset="0" stop-color="#fff"/><stop offset="1" stop-color="#f4f4f4"/></linearGradient><path d="M-84.3 236.5C5.9 167.2 181.6 101 379.5 117c17 1.4 34.6 4 52.5 7.3 189.4 35.1 406.8 147.1 556.8 108 121.1-31.5 199.9-88.2 273.5-159.3 55.9-54.1 92-106.9 92-106.9" fill="none" stroke="url(#o)" stroke-width=".305" stroke-miterlimit="10"/><linearGradient id="p" gradientUnits="userSpaceOnUse" x1="636.159" y1="-28.838" x2="636.159" y2="239.255"><stop offset="0" stop-color="#fff"/><stop offset="1" stop-color="#f4f4f4"/></linearGradient><path d="M-82.7 235.7C6 167.5 181.9 104.5 379.4 120.3c17 1.4 34.4 3.9 52.2 7.1 188.9 34.3 404.1 141.4 554.7 103.7 122.3-30.6 200.5-84.1 275.3-154.3 56.5-53 93.3-105.6 93.3-105.6" fill="none" stroke="url(#p)" stroke-width=".305" stroke-miterlimit="10"/><linearGradient id="q" gradientUnits="userSpaceOnUse" x1="637.301" y1="-23.625" x2="637.301" y2="237.922"><stop offset="0" stop-color="#fff"/><stop offset="1" stop-color="#f4f4f4"/></linearGradient><path d="M-81.2 234.9C6.2 167.8 182.2 108 379.4 123.7c16.9 1.4 34.3 3.8 52 7 188.5 33.5 401.4 135.8 552.6 99.4 123.6-29.8 201.1-80.1 277.2-149.4 57-52 94.6-104.2 94.6-104.2" fill="none" stroke="url(#q)" stroke-width=".305" stroke-miterlimit="10"/><linearGradient id="r" gradientUnits="userSpaceOnUse" x1="638.443" y1="-18.413" x2="638.443" y2="236.593"><stop offset="0" stop-color="#fff"/><stop offset="1" stop-color="#f4f4f4"/></linearGradient><path d="M-79.7 234.1c86.1-66 262.2-122.6 459.1-107 16.8 1.3 34.1 3.8 51.8 6.8 188 32.7 398.7 130.2 550.5 95 124.8-28.9 201.7-76 279-144.4 57.6-50.9 95.8-102.8 95.8-102.8" fill="none" stroke="url(#r)" stroke-width=".305" stroke-miterlimit="10"/><linearGradient id="s" gradientUnits="userSpaceOnUse" x1="639.586" y1="-13.2" x2="639.586" y2="235.268"><stop offset="0" stop-color="#fff"/><stop offset="1" stop-color="#f4f4f4"/></linearGradient><path d="M-78.2 233.2c84.7-64.8 261-118.3 457.6-102.8 16.8 1.3 34 3.7 51.6 6.7 187.5 31.9 396 124.5 548.4 90.7 126.1-28 202.2-72 280.8-139.5 58.1-49.9 97.1-101.4 97.1-101.4" fill="none" stroke="url(#s)" stroke-width=".305" stroke-miterlimit="10"/><linearGradient id="t" gradientUnits="userSpaceOnUse" x1="640.728" y1="-7.987" x2="640.728" y2="233.947"><stop offset="0" stop-color="#fff"/><stop offset="1" stop-color="#f4f4f4"/></linearGradient><path d="M-76.7 232.4C6.7 168.7 183 118.5 379.4 133.7c16.7 1.3 33.9 3.6 51.4 6.6 187.1 31.1 393.3 118.9 546.3 86.4 127.3-27.1 202.8-67.9 282.7-134.5 58.6-48.8 98.3-100 98.3-100" fill="none" stroke="url(#t)" stroke-width=".305" stroke-miterlimit="10"/><linearGradient id="u" gradientUnits="userSpaceOnUse" x1="641.87" y1="-2.774" x2="641.87" y2="232.631"><stop offset="0" stop-color="#fff"/><stop offset="1" stop-color="#f4f4f4"/></linearGradient><path d="M-75.1 231.6C6.9 169 183.4 122 379.4 137.1c16.7 1.3 33.7 3.6 51.1 6.4 186.6 30.3 390.6 113.3 544.1 82 128.6-26.2 203.3-63.9 284.5-129.5 59.1-47.8 99.6-98.7 99.6-98.7" fill="none" stroke="url(#u)" stroke-width=".305" stroke-miterlimit="10"/><linearGradient id="v" gradientUnits="userSpaceOnUse" x1="643.013" y1="2.438" x2="643.013" y2="231.32"><stop offset="0" stop-color="#fff"/><stop offset="1" stop-color="#f4f4f4"/></linearGradient><path d="M-73.6 230.8c80.6-61.5 257.3-105.3 453-90.3 16.6 1.3 33.6 3.5 50.9 6.3 186.1 29.5 388 107.7 542 77.7 129.9-25.3 203.8-59.9 286.4-124.6 59.6-46.7 100.9-97.3 100.9-97.3" fill="none" stroke="url(#v)" stroke-width=".305" stroke-miterlimit="10"/><linearGradient id="w" gradientUnits="userSpaceOnUse" x1="644.155" y1="7.651" x2="644.155" y2="230.085"><stop offset="0" stop-color="#fff"/><stop offset="1" stop-color="#f4f4f4"/></linearGradient><path d="M-72.1 230C7.2 169.6 184 129 379.4 143.8c16.5 1.3 33.5 3.5 50.7 6.1 185.7 28.7 385.3 102.2 539.9 73.4 131.1-24.4 204.4-55.9 288.2-119.6 60.1-45.7 102.1-95.9 102.1-95.9" fill="none" stroke="url(#w)" stroke-width=".305" stroke-miterlimit="10"/><linearGradient id="x" gradientUnits="userSpaceOnUse" x1="645.297" y1="12.864" x2="645.297" y2="229.263"><stop offset="0" stop-color="#fff"/><stop offset="1" stop-color="#f4f4f4"/></linearGradient><path d="M-70.6 229.1c78-59.2 254.8-96.7 450-82 16.5 1.3 33.3 3.4 50.5 6 185.2 27.9 382.6 96.6 537.8 69 132.4-23.5 204.9-51.9 290.1-114.7 60.6-44.6 103.4-94.5 103.4-94.5" fill="none" stroke="url(#x)" stroke-width=".305" stroke-miterlimit="10"/><linearGradient id="y" gradientUnits="userSpaceOnUse" x1="646.44" y1="18.077" x2="646.44" y2="228.442"><stop offset="0" stop-color="#fff"/><stop offset="1" stop-color="#f4f4f4"/></linearGradient><path d="M-69.1 228.3c76.6-58.1 253.6-92.3 448.5-77.8 16.4 1.2 33.2 3.3 50.3 5.8 184.7 27.1 379.9 91 535.7 64.7 133.7-22.6 205.4-47.9 291.9-109.7 61.1-43.6 104.6-93.1 104.6-93.1" fill="none" stroke="url(#y)" stroke-width=".305" stroke-miterlimit="10"/><linearGradient id="z" gradientUnits="userSpaceOnUse" x1="647.582" y1="23.29" x2="647.582" y2="227.621"><stop offset="0" stop-color="#fff"/><stop offset="1" stop-color="#f4f4f4"/></linearGradient><path d="M-67.6 227.5c75.3-57 252.4-88 447-73.6 16.3 1.2 33 3.3 50 5.7C613.7 185.8 806.7 245 963 219.9c134.9-21.7 205.9-43.9 293.8-104.8 61.6-42.6 105.9-91.8 105.9-91.8" fill="none" stroke="url(#z)" stroke-width=".305" stroke-miterlimit="10"/><linearGradient id="A" gradientUnits="userSpaceOnUse" x1="648.724" y1="28.503" x2="648.724" y2="226.799"><stop offset="0" stop-color="#fff"/><stop offset="1" stop-color="#f4f4f4"/></linearGradient><path d="M-66 226.7c73.9-55.9 251.2-83.7 445.4-69.4 16.3 1.2 32.9 3.2 49.8 5.5 183.8 25.4 374.6 79.9 531.5 56 136.2-20.7 206.4-40 295.6-99.8 62-41.6 107.2-90.4 107.2-90.4" fill="none" stroke="url(#A)" stroke-width=".305" stroke-miterlimit="10"/><linearGradient id="B" gradientUnits="userSpaceOnUse" x1="649.866" y1="33.716" x2="649.866" y2="225.978"><stop offset="0" stop-color="#fff"/><stop offset="1" stop-color="#f4f4f4"/></linearGradient><path d="M-64.5 225.9c72.6-54.8 249.9-79.4 443.9-65.3 16.2 1.2 32.8 3.1 49.6 5.4 183.4 24.6 371.9 74.4 529.3 51.7 137.5-19.8 206.9-36 297.5-94.8 62.5-40.6 108.4-89 108.4-89" fill="none" stroke="url(#B)" stroke-width=".305" stroke-miterlimit="10"/><linearGradient id="C" gradientUnits="userSpaceOnUse" x1="651.009" y1="38.928" x2="651.009" y2="225.157"><stop offset="0" stop-color="#fff"/><stop offset="1" stop-color="#f4f4f4"/></linearGradient><path d="M-63 225c71.2-53.6 248.7-75.1 442.4-61.1 16.2 1.2 32.6 3.1 49.4 5.2C611.7 193 798 238 956 216.5c138.7-18.8 207.4-32 299.3-89.9C1318.3 87.1 1365 39 1365 39" fill="none" stroke="url(#C)" stroke-width=".305" stroke-miterlimit="10"/><linearGradient id="D" gradientUnits="userSpaceOnUse" x1="652.151" y1="44.142" x2="652.151" y2="224.335"><stop offset="0" stop-color="#fff"/><stop offset="1" stop-color="#f4f4f4"/></linearGradient><path d="M-61.5 224.2c69.9-52.5 247.5-70.7 440.9-56.9 16.1 1.2 32.5 3 49.2 5.1 182.4 23 366.5 63.3 525.1 43 140-17.9 207.9-28.1 301.2-84.9 63.4-38.6 111-86.2 111-86.2" fill="none" stroke="url(#D)" stroke-width=".305" stroke-miterlimit="10"/><linearGradient id="E" gradientUnits="userSpaceOnUse" x1="653.293" y1="49.354" x2="653.293" y2="223.514"><stop offset="0" stop-color="#fff"/><stop offset="1" stop-color="#f4f4f4"/></linearGradient><path d="M-60 223.4C8.5 172 186.3 157 379.4 170.6c16 1.2 32.4 2.9 48.9 5 182 22.2 363.9 57.8 523 38.7 141.3-16.9 208.3-24.2 303-80 63.9-37.6 112.2-84.9 112.2-84.9" fill="none" stroke="url(#E)" stroke-width=".305" stroke-miterlimit="10"/><linearGradient id="F" gradientUnits="userSpaceOnUse" x1="654.436" y1="54.567" x2="654.436" y2="222.693"><stop offset="0" stop-color="#fff"/><stop offset="1" stop-color="#f4f4f4"/></linearGradient><path d="M-58.4 222.6c67.2-50.3 245-62.1 437.8-48.6 16 1.1 32.2 2.9 48.7 4.8C609.6 200.1 789.3 231 949 213.1c142.5-16 208.8-20.2 304.8-75 64.3-36.7 113.5-83.5 113.5-83.5" fill="none" stroke="url(#F)" stroke-width=".305" stroke-miterlimit="10"/><linearGradient id="G" gradientUnits="userSpaceOnUse" x1="655.578" y1="59.78" x2="655.578" y2="221.871"><stop offset="0" stop-color="#fff"/><stop offset="1" stop-color="#f4f4f4"/></linearGradient><path d="M-56.9 221.7c65.8-49.2 243.8-57.8 436.3-44.4 15.9 1.1 32.1 2.8 48.5 4.7 181.1 20.5 358.5 46.7 518.8 30 143.8-15 209.2-16.3 306.7-70 64.8-35.7 114.7-82.1 114.7-82.1" fill="none" stroke="url(#G)" stroke-width=".305" stroke-miterlimit="10"/><linearGradient id="H" gradientUnits="userSpaceOnUse" x1="656.72" y1="64.993" x2="656.72" y2="221.05"><stop offset="0" stop-color="#fff"/><stop offset="1" stop-color="#f4f4f4"/></linearGradient><path d="M-55.4 220.9c64.5-48 242.6-53.5 434.8-40.2 15.8 1.1 32 2.7 48.3 4.5 180.6 19.7 355.8 41.2 516.6 25.7 145.1-14 209.7-12.4 308.5-65.1 65.2-34.7 116-80.7 116-80.7" fill="none" stroke="url(#H)" stroke-width=".305" stroke-miterlimit="10"/><linearGradient id="I" gradientUnits="userSpaceOnUse" x1="657.862" y1="70.206" x2="657.862" y2="220.229"><stop offset="0" stop-color="#fff"/><stop offset="1" stop-color="#f4f4f4"/></linearGradient><path d="M-53.9 220.1c63.1-46.9 241.4-49.1 433.3-36 15.8 1.1 31.8 2.7 48 4.4 180.1 18.9 353.2 35.7 514.5 21.3 146.3-13 210.2-8.5 310.4-60.1 65.7-33.8 117.3-79.4 117.3-79.4" fill="none" stroke="url(#I)" stroke-width=".305" stroke-miterlimit="10"/><linearGradient id="J" gradientUnits="userSpaceOnUse" x1="659.004" y1="75.419" x2="659.004" y2="219.407"><stop offset="0" stop-color="#fff"/><stop offset="1" stop-color="#f4f4f4"/></linearGradient><path d="M-52.4 219.3c61.8-45.8 240.1-44.8 431.8-31.9 15.7 1.1 31.7 2.6 47.8 4.2 179.7 18 350.5 30.2 512.4 17 147.6-12.1 210.6-4.7 312.2-55.2 66.1-32.8 118.5-78 118.5-78" fill="none" stroke="url(#J)" stroke-width=".305" stroke-miterlimit="10"/><linearGradient id="K" gradientUnits="userSpaceOnUse" x1="660.146" y1="80.632" x2="660.146" y2="218.586"><stop offset="0" stop-color="#fff"/><stop offset="1" stop-color="#f4f4f4"/></linearGradient><path d="M-50.9 218.5C9.5 173.8 188 178 379.3 190.8c15.7 1.1 31.5 2.5 47.6 4.1 179.2 17.2 347.8 24.7 510.3 12.7 148.9-11.1 211.1-.8 314.1-50.2 66.5-31.9 119.8-76.6 119.8-76.6" fill="none" stroke="url(#K)" stroke-width=".305" stroke-miterlimit="10"/><linearGradient id="L" gradientUnits="userSpaceOnUse" x1="661.289" y1="85.846" x2="661.289" y2="217.765"><stop offset="0" stop-color="#fff"/><stop offset="1" stop-color="#f4f4f4"/></linearGradient><path d="M-49.3 217.6c59.1-43.6 237.7-36.2 428.7-23.5 15.6 1.1 31.4 2.5 47.4 3.9 178.8 16.4 345.1 19.3 508.2 8.3 150.1-10.1 211.5 3 315.9-45.2 67-31 121-75.2 121-75.2" fill="none" stroke="url(#L)" stroke-width=".305" stroke-miterlimit="10"/><linearGradient id="M" gradientUnits="userSpaceOnUse" x1="662.431" y1="91.059" x2="662.431" y2="216.944"><stop offset="0" stop-color="#fff"/><stop offset="1" stop-color="#f4f4f4"/></linearGradient><path d="M-47.8 216.8c57.7-42.4 236.5-31.9 427.2-19.3 15.5 1 31.3 2.4 47.2 3.8 178.3 15.5 342.5 13.8 506.1 4 151.4-9 211.9 6.9 317.8-40.3 67.4-30 122.3-73.8 122.3-73.8" fill="none" stroke="url(#M)" stroke-width=".305" stroke-miterlimit="10"/><linearGradient id="N" gradientUnits="userSpaceOnUse" x1="663.573" y1="96.272" x2="663.573" y2="216.122"><stop offset="0" stop-color="#fff"/><stop offset="1" stop-color="#f4f4f4"/></linearGradient><path d="M-46.3 216c56.4-41.3 235.2-27.6 425.7-15.2 15.5 1 31.1 2.4 46.9 3.7 177.8 14.7 339.8 8.3 504-.3 152.7-8 212.4 10.7 319.6-35.3 67.9-29.1 123.6-72.5 123.6-72.5" fill="none" stroke="url(#N)" stroke-width=".305" stroke-miterlimit="10"/><linearGradient id="O" gradientUnits="userSpaceOnUse" x1="664.715" y1="101.485" x2="664.715" y2="215.301"><stop offset="0" stop-color="#fff"/><stop offset="1" stop-color="#f4f4f4"/></linearGradient><path d="M-44.8 215.2c55-40.2 234-23.2 424.1-11 15.4 1 31 2.3 46.7 3.5 177.4 13.8 337.1 2.8 501.8-4.7 153.9-7 212.8 14.5 321.5-30.4 68.3-28.2 124.8-71.1 124.8-71.1" fill="none" stroke="url(#O)" stroke-width=".305" stroke-miterlimit="10"/><linearGradient id="P" gradientUnits="userSpaceOnUse" x1="665.858" y1="106.698" x2="665.858" y2="216.07"><stop offset="0" stop-color="#fff"/><stop offset="1" stop-color="#f4f4f4"/></linearGradient><path d="M-43.3 214.4c53.7-39.1 232.8-18.9 422.6-6.8 15.3 1 30.9 2.2 46.5 3.4 176.9 13 334.4-2.6 499.7-9 155.2-6 213.3 18.3 323.3-25.4 68.7-27.3 126.1-69.7 126.1-69.7" fill="none" stroke="url(#P)" stroke-width=".305" stroke-miterlimit="10"/><linearGradient id="Q" gradientUnits="userSpaceOnUse" x1="667" y1="111.911" x2="667" y2="218.083"><stop offset="0" stop-color="#fff"/><stop offset="1" stop-color="#f4f4f4"/></linearGradient><path d="M-41.8 213.5c52.3-38 231.6-14.6 421.1-2.6 15.3 1 30.7 2.1 46.3 3.2 176.5 12.1 331.7-8.1 497.6-13.3 156.5-5 213.7 22.1 325.2-20.4 69.2-26.4 127.3-68.3 127.3-68.3" fill="none" stroke="url(#Q)" stroke-width=".305" stroke-miterlimit="10"/><linearGradient id="R" gradientUnits="userSpaceOnUse" x1="668.142" y1="117.124" x2="668.142" y2="220.391"><stop offset="0" stop-color="#fff"/><stop offset="1" stop-color="#f4f4f4"/></linearGradient><path d="M-40.2 212.7c51-36.8 230.3-10.3 419.6 1.5 15.2 1 30.6 2.1 46.1 3.1 176 11.3 329-13.5 495.5-17.7 157.7-3.9 214.1 25.9 327-15.5 69.6-25.5 128.6-66.9 128.6-66.9" fill="none" stroke="url(#R)" stroke-width=".305" stroke-miterlimit="10"/><linearGradient id="S" gradientUnits="userSpaceOnUse" x1="669.284" y1="122.338" x2="669.284" y2="222.912"><stop offset="0" stop-color="#fff"/><stop offset="1" stop-color="#f4f4f4"/></linearGradient><path d="M-38.7 211.9c49.6-35.7 229.1-6 418.1 5.7 15.1.9 30.5 2 45.8 2.9 175.5 10.4 326.4-19 493.4-22 159-2.9 214.6 29.7 328.8-10.5 70.1-24.6 129.9-65.6 129.9-65.6" fill="none" stroke="url(#S)" stroke-width=".305" stroke-miterlimit="10"/><linearGradient id="T" gradientUnits="userSpaceOnUse" x1="670.427" y1="127.551" x2="670.427" y2="225.589"><stop offset="0" stop-color="#fff"/><stop offset="1" stop-color="#f4f4f4"/></linearGradient><path d="M-37.2 211.1c48.3-34.6 227.9-1.6 416.5 9.9 15.1.9 30.3 1.9 45.6 2.8 175.1 9.6 323.7-24.4 491.3-26.3 160.2-1.8 215 33.4 330.7-5.6 70.5-23.8 131.1-64.2 131.1-64.2" fill="none" stroke="url(#T)" stroke-width=".305" stroke-miterlimit="10"/><linearGradient id="U" gradientUnits="userSpaceOnUse" x1="671.569" y1="132.764" x2="671.569" y2="228.31"><stop offset="0" stop-color="#fff"/><stop offset="1" stop-color="#f4f4f4"/></linearGradient><path d="M-35.7 210.2c46.9-33.5 226.7 2.7 415 14.1 15 .9 30.2 1.9 45.4 2.6 174.6 8.7 321-32.6 489.2-30.7 161.5 1.9 215.4 37.2 332.5-.6 71-22.9 132.4-62.8 132.4-62.8" fill="none" stroke="url(#U)" stroke-width=".305" stroke-miterlimit="10"/><linearGradient id="V" gradientUnits="userSpaceOnUse" x1="672.711" y1="137.977" x2="672.711" y2="231.219"><stop offset="0" stop-color="#fff"/><stop offset="1" stop-color="#f4f4f4"/></linearGradient><path d="M-34.2 209.4c45.6-32.4 225.4 7 413.5 18.2 15 .9 30 1.8 45.2 2.5 174.2 7.9 318.3-37.8 487-35 162.7 2.7 215.9 40.9 334.4 4.4 71.4-22 133.7-61.4 133.7-61.4" fill="none" stroke="url(#V)" stroke-width=".305" stroke-miterlimit="10"/><linearGradient id="W" gradientUnits="userSpaceOnUse" x1="673.853" y1="143.191" x2="673.853" y2="234.218"><stop offset="0" stop-color="#fff"/><stop offset="1" stop-color="#f4f4f4"/></linearGradient><path d="M-32.6 208.6c44.2-31.2 224.2 11.3 412 22.4 14.9.9 29.9 1.7 45 2.4 173.7 7 315.6-40.7 484.9-39.3 164 1.3 216.3 44.6 336.2 9.3 71.9-21.1 134.9-60 134.9-60" fill="none" stroke="url(#W)" stroke-width=".305" stroke-miterlimit="10"/><linearGradient id="X" gradientUnits="userSpaceOnUse" x1="674.995" y1="148.404" x2="674.995" y2="237.226"><stop offset="0" stop-color="#fff"/><stop offset="1" stop-color="#f4f4f4"/></linearGradient><path d="M-31.1 207.8c42.9-30.1 223 15.6 410.5 26.6 14.8.9 29.8 1.7 44.7 2.2 173.2 6.1 312.9-46.1 482.8-43.7 165.3 2.4 216.8 48.3 338.1 14.3 72.3-20.3 136.2-58.7 136.2-58.7" fill="none" stroke="url(#X)" stroke-width=".305" stroke-miterlimit="10"/><linearGradient id="Y" gradientUnits="userSpaceOnUse" x1="676.138" y1="153.618" x2="676.138" y2="240.241"><stop offset="0" stop-color="#fff"/><stop offset="1" stop-color="#f4f4f4"/></linearGradient><path d="M-29.6 207c41.5-29 221.8 20 408.9 30.8 14.8.9 29.6 1.6 44.5 2.1 172.8 4.9 310.2-51.6 480.7-48 166.5 3.5 217.2 52 339.9 19.2 72.8-19.4 137.4-57.3 137.4-57.3" fill="none" stroke="url(#Y)" stroke-width=".305" stroke-miterlimit="10"/><linearGradient id="Z" gradientUnits="userSpaceOnUse" x1="677.28" y1="158.831" x2="677.28" y2="243.343"><stop offset="0" stop-color="#fff"/><stop offset="1" stop-color="#f4f4f4"/></linearGradient><path d="M-28.1 206.1c40.2-27.9 220.5 24.3 407.4 34.9 14.7.8 29.5 1.5 44.3 1.9 172.3 4.1 307.5-57 478.6-52.3 167.8 4.5 217.7 55.7 341.8 24.2 73.2-18.6 138.7-55.9 138.7-55.9" fill="none" stroke="url(#Z)" stroke-width=".305" stroke-miterlimit="10"/><linearGradient id="aa" gradientUnits="userSpaceOnUse" x1="678.422" y1="164.044" x2="678.422" y2="246.472"><stop offset="0" stop-color="#fff"/><stop offset="1" stop-color="#f4f4f4"/></linearGradient><path d="M-26.6 205.3c38.8-26.8 219.3 28.6 405.9 39.1 14.6.8 29.4 1.5 44.1 1.8 171.9 3.3 304.8-62.4 476.5-56.7 169 5.6 218.1 59.4 343.6 29.2 73.7-17.7 140-54.5 140-54.5" fill="none" stroke="url(#aa)" stroke-width=".305" stroke-miterlimit="10"/><linearGradient id="ab" gradientUnits="userSpaceOnUse" x1="679.565" y1="169.258" x2="679.565" y2="249.625"><stop offset="0" stop-color="#fff"/><stop offset="1" stop-color="#f4f4f4"/></linearGradient><path d="M-25.1 204.5c37.5-25.6 218.1 32.9 404.4 43.3 14.6.8 29.2 1.4 43.9 1.6 171.4 2.5 302.1-67.8 474.3-61 170.3 6.7 218.6 63.1 345.5 34.1 74.1-16.9 141.2-53.1 141.2-53.1" fill="none" stroke="url(#ab)" stroke-width=".305" stroke-miterlimit="10"/><linearGradient id="ac" gradientUnits="userSpaceOnUse" x1="680.707" y1="174.471" x2="680.707" y2="252.797"><stop offset="0" stop-color="#fff"/><stop offset="1" stop-color="#f4f4f4"/></linearGradient><path d="M-23.5 203.7c36.1-24.5 216.9 37.2 402.8 47.5 14.5.8 29.1 1.3 43.6 1.5 170.9 1.6 299.4-72.9 472.2-65.3 171.5 8.1 219.1 66.7 347.3 39.1 74.6-16.1 142.5-51.8 142.5-51.8" fill="none" stroke="url(#ac)" stroke-width=".305" stroke-miterlimit="10"/><linearGradient id="ad" gradientUnits="userSpaceOnUse" x1="681.849" y1="179.685" x2="681.849" y2="255.985"><stop offset="0" stop-color="#fff"/><stop offset="1" stop-color="#f4f4f4"/></linearGradient><path d="M-22 202.9c34.8-23.4 215.6 41.6 401.3 51.6 14.5.8 29 1.3 43.4 1.3 170.5.8 296.7-78.4 470.1-69.7 172.8 9.1 219.5 70.4 349.2 44 75.1-15.2 143.7-50.4 143.7-50.4" fill="none" stroke="url(#ad)" stroke-width=".305" stroke-miterlimit="10"/><linearGradient id="ae" gradientUnits="userSpaceOnUse" x1="682.992" y1="184.055" x2="682.992" y2="259.187"><stop offset="0" stop-color="#fff"/><stop offset="1" stop-color="#f4f4f4"/></linearGradient><path d="M-20.5 202c36-24 243.4 57 443 57 170 0 294-84 468-74s220 74 351 49c75.5-14.4 145-49 145-49" fill="none" stroke="url(#ae)" stroke-width=".305" stroke-miterlimit="10"/></svg>