<?xml version="1.0" encoding="utf-8"?>
<!-- Generator: Adobe Illustrator 22.1.0, SVG Export Plug-In . SVG Version: 6.00 Build 0)  -->
<svg version="1.1" id="Camada_1" xmlns="http://www.w3.org/2000/svg" xmlns:xlink="http://www.w3.org/1999/xlink" x="0px" y="0px"
	 viewBox="0 0 1001.5 286.5" style="enable-background:new 0 0 1001.5 286.5;" xml:space="preserve">
<style type="text/css">
	.st0{font-family:'Mistral';}
	.st1{font-size:70px;}
	.st2{letter-spacing:-1;}
</style>
<title>Ativo 1</title>
<g id="Camada_2_1_">
	<g id="Layer_1">
		
			<image style="overflow:visible;opacity:0.46;enable-background:new    ;" width="1002" height="600" xlink:href="FFACEDF8.png"  transform="matrix(0.998 0 0 0.5988 0 -35.6407)">
		</image>
		<text transform="matrix(1 0 0 1 209.83 192.52)" class="st0 st1 st2">V</text>
		<text transform="matrix(1 0 0 1 236.61 192.52)" class="st0 st1">a</text>
		<text transform="matrix(1 0 0 1 262.36 192.52)" class="st0 st1">m</text>
		<text transform="matrix(1 0 0 1 304.72 192.52)" class="st0 st1">o</text>
		<text transform="matrix(1 0 0 1 329.88 192.52)" class="st0 st1">s </text>
		<text transform="matrix(1 0 0 1 368.77 192.52)" class="st0 st1">c</text>
		<text transform="matrix(1 0 0 1 390.31 192.52)" class="st0 st1">r</text>
		<text transform="matrix(1 0 0 1 412.86 192.52)" class="st0 st1">i</text>
		<text transform="matrix(1 0 0 1 431.51 192.52)" class="st0 st1">a</text>
		<text transform="matrix(1 0 0 1 457.26 192.52)" class="st0 st1">r </text>
		<text transform="matrix(1 0 0 1 497.56 192.52)" class="st0 st1">a</text>
		<text transform="matrix(1 0 0 1 523.8 192.52)" class="st0 st1">l</text>
		<text transform="matrix(1 0 0 1 542.37 192.52)" class="st0 st1">g</text>
		<text transform="matrix(1 0 0 1 560.89 192.52)" class="st0 st1">o </text>
		<text transform="matrix(1 0 0 1 603.11 192.52)" class="st0 st1">j</text>
		<text transform="matrix(1 0 0 1 623.56 192.52)" class="st0 st1">u</text>
		<text transform="matrix(1 0 0 1 651.48 192.52)" class="st0 st1">n</text>
		<text transform="matrix(1 0 0 1 683.39 192.52)" class="st0 st1">t</text>
		<text transform="matrix(1 0 0 1 702.14 192.52)" class="st0 st1">o</text>
		<text transform="matrix(1 0 0 1 727.29 192.52)" class="st0 st1">s</text>
		<text transform="matrix(1 0 0 1 747.07 192.52)" class="st0 st1">!</text>
	</g>
</g>
</svg>
