<?xml version="1.0" encoding="utf-8"?>
<!-- Generator: Adobe Illustrator 16.0.0, SVG Export Plug-In . SVG Version: 6.00 Build 0)  -->
<!DOCTYPE svg PUBLIC "-//W3C//DTD SVG 1.1//EN" "http://www.w3.org/Graphics/SVG/1.1/DTD/svg11.dtd">
<svg version="1.1" id="Camada_1" xmlns="http://www.w3.org/2000/svg" xmlns:xlink="http://www.w3.org/1999/xlink" x="0px" y="0px"
	 width="340.582px" height="45px" viewBox="139.418 383.5 340.582 45" enable-background="new 139.418 383.5 340.582 45"
	 xml:space="preserve">
<title>Ativo 1</title>
<g id="Camada_2_1_">
	<g id="Layer_1">
		<text transform="matrix(1 0 0 1 139.418 415.5117)" font-family="'Mistral'" font-size="42.7758">V</text>
		<text transform="matrix(1 0 0 1 155.7822 415.5117)" font-family="'Mistral'" font-size="42.7758">a</text>
		<text transform="matrix(1 0 0 1 171.5176 415.5117)" font-family="'Mistral'" font-size="42.7758">m</text>
		<text transform="matrix(1 0 0 1 197.4033 415.5117)" font-family="'Mistral'" font-size="42.7758">o</text>
		<text transform="matrix(1 0 0 1 212.7783 415.5117)" font-family="'Mistral'" font-size="42.7758">s </text>
		<text transform="matrix(1 0 0 1 236.5435 415.5117)" font-family="'Mistral'" font-size="42.7758">c</text>
		<text transform="matrix(1 0 0 1 249.7065 415.5117)" font-family="'Mistral'" font-size="42.7758">r</text>
		<text transform="matrix(1 0 0 1 263.4863 415.5117)" font-family="'Mistral'" font-size="42.7758">i</text>
		<text transform="matrix(1 0 0 1 274.8828 415.5117)" font-family="'Mistral'" font-size="42.7758">a</text>
		<text transform="matrix(1 0 0 1 290.6182 415.5117)" font-family="'Mistral'" font-size="42.7758">r </text>
		<text transform="matrix(1 0 0 1 315.2451 415.5117)" font-family="'Mistral'" font-size="42.7758">a</text>
		<text transform="matrix(1 0 0 1 331.2803 415.5117)" font-family="'Mistral'" font-size="42.7758">l</text>
		<text transform="matrix(1 0 0 1 342.6279 415.5117)" font-family="'Mistral'" font-size="42.7758">g</text>
		<text transform="matrix(1 0 0 1 353.9443 415.5117)" font-family="'Mistral'" font-size="42.7758">o </text>
		<text transform="matrix(1 0 0 1 379.7451 415.5117)" font-family="'Mistral'" font-size="42.7758">j</text>
		<text transform="matrix(1 0 0 1 392.2412 415.5117)" font-family="'Mistral'" font-size="42.7758">u</text>
		<text transform="matrix(1 0 0 1 409.3027 415.5117)" font-family="'Mistral'" font-size="42.7758">n</text>
		<text transform="matrix(1 0 0 1 428.8027 415.5117)" font-family="'Mistral'" font-size="42.7758">t</text>
		<text transform="matrix(1 0 0 1 440.2607 415.5117)" font-family="'Mistral'" font-size="42.7758">o</text>
		<text transform="matrix(1 0 0 1 455.6289 415.5117)" font-family="'Mistral'" font-size="42.7758">s</text>
		<text transform="matrix(1 0 0 1 467.7158 415.5117)" font-family="'Mistral'" font-size="42.7758">!</text>
	</g>
</g>
</svg>
