<?xml version="1.0" encoding="utf-8"?>
<!-- Generator: Adobe Illustrator 22.1.0, SVG Export Plug-In . SVG Version: 6.00 Build 0)  -->
<svg version="1.1" id="Camada_1" xmlns="http://www.w3.org/2000/svg" xmlns:xlink="http://www.w3.org/1999/xlink" x="0px" y="0px"
	 viewBox="0 0 1280 261" style="enable-background:new 0 0 1280 261;" xml:space="preserve">
<style type="text/css">
	.st0{fill:none;stroke:url(#SVGID_1_);stroke-width:0.305;stroke-miterlimit:10;}
	.st1{fill:none;stroke:url(#SVGID_2_);stroke-width:0.305;stroke-miterlimit:10;}
	.st2{fill:none;stroke:url(#SVGID_3_);stroke-width:0.305;stroke-miterlimit:10;}
	.st3{fill:none;stroke:url(#SVGID_4_);stroke-width:0.305;stroke-miterlimit:10;}
	.st4{fill:none;stroke:url(#SVGID_5_);stroke-width:0.305;stroke-miterlimit:10;}
	.st5{fill:none;stroke:url(#SVGID_6_);stroke-width:0.305;stroke-miterlimit:10;}
	.st6{fill:none;stroke:url(#SVGID_7_);stroke-width:0.305;stroke-miterlimit:10;}
	.st7{fill:none;stroke:url(#SVGID_8_);stroke-width:0.305;stroke-miterlimit:10;}
	.st8{fill:none;stroke:url(#SVGID_9_);stroke-width:0.305;stroke-miterlimit:10;}
	.st9{fill:none;stroke:url(#SVGID_10_);stroke-width:0.305;stroke-miterlimit:10;}
	.st10{fill:none;stroke:url(#SVGID_11_);stroke-width:0.305;stroke-miterlimit:10;}
	.st11{fill:none;stroke:url(#SVGID_12_);stroke-width:0.305;stroke-miterlimit:10;}
	.st12{fill:none;stroke:url(#SVGID_13_);stroke-width:0.305;stroke-miterlimit:10;}
	.st13{fill:none;stroke:url(#SVGID_14_);stroke-width:0.305;stroke-miterlimit:10;}
	.st14{fill:none;stroke:url(#SVGID_15_);stroke-width:0.305;stroke-miterlimit:10;}
	.st15{fill:none;stroke:url(#SVGID_16_);stroke-width:0.305;stroke-miterlimit:10;}
	.st16{fill:none;stroke:url(#SVGID_17_);stroke-width:0.305;stroke-miterlimit:10;}
	.st17{fill:none;stroke:url(#SVGID_18_);stroke-width:0.305;stroke-miterlimit:10;}
	.st18{fill:none;stroke:url(#SVGID_19_);stroke-width:0.305;stroke-miterlimit:10;}
	.st19{fill:none;stroke:url(#SVGID_20_);stroke-width:0.305;stroke-miterlimit:10;}
	.st20{fill:none;stroke:url(#SVGID_21_);stroke-width:0.305;stroke-miterlimit:10;}
	.st21{fill:none;stroke:url(#SVGID_22_);stroke-width:0.305;stroke-miterlimit:10;}
	.st22{fill:none;stroke:url(#SVGID_23_);stroke-width:0.305;stroke-miterlimit:10;}
	.st23{fill:none;stroke:url(#SVGID_24_);stroke-width:0.305;stroke-miterlimit:10;}
	.st24{fill:none;stroke:url(#SVGID_25_);stroke-width:0.305;stroke-miterlimit:10;}
	.st25{fill:none;stroke:url(#SVGID_26_);stroke-width:0.305;stroke-miterlimit:10;}
	.st26{fill:none;stroke:url(#SVGID_27_);stroke-width:0.305;stroke-miterlimit:10;}
	.st27{fill:none;stroke:url(#SVGID_28_);stroke-width:0.305;stroke-miterlimit:10;}
	.st28{fill:none;stroke:url(#SVGID_29_);stroke-width:0.305;stroke-miterlimit:10;}
	.st29{fill:none;stroke:url(#SVGID_30_);stroke-width:0.305;stroke-miterlimit:10;}
	.st30{fill:none;stroke:url(#SVGID_31_);stroke-width:0.305;stroke-miterlimit:10;}
	.st31{fill:none;stroke:url(#SVGID_32_);stroke-width:0.305;stroke-miterlimit:10;}
	.st32{fill:none;stroke:url(#SVGID_33_);stroke-width:0.305;stroke-miterlimit:10;}
	.st33{fill:none;stroke:url(#SVGID_34_);stroke-width:0.305;stroke-miterlimit:10;}
	.st34{fill:none;stroke:url(#SVGID_35_);stroke-width:0.305;stroke-miterlimit:10;}
	.st35{fill:none;stroke:url(#SVGID_36_);stroke-width:0.305;stroke-miterlimit:10;}
	.st36{fill:none;stroke:url(#SVGID_37_);stroke-width:0.305;stroke-miterlimit:10;}
	.st37{fill:none;stroke:url(#SVGID_38_);stroke-width:0.305;stroke-miterlimit:10;}
	.st38{fill:none;stroke:url(#SVGID_39_);stroke-width:0.305;stroke-miterlimit:10;}
	.st39{fill:none;stroke:url(#SVGID_40_);stroke-width:0.305;stroke-miterlimit:10;}
	.st40{fill:none;stroke:url(#SVGID_41_);stroke-width:0.305;stroke-miterlimit:10;}
	.st41{fill:none;stroke:url(#SVGID_42_);stroke-width:0.305;stroke-miterlimit:10;}
	.st42{fill:none;stroke:url(#SVGID_43_);stroke-width:0.305;stroke-miterlimit:10;}
	.st43{fill:none;stroke:url(#SVGID_44_);stroke-width:0.305;stroke-miterlimit:10;}
	.st44{fill:none;stroke:url(#SVGID_45_);stroke-width:0.305;stroke-miterlimit:10;}
	.st45{fill:none;stroke:url(#SVGID_46_);stroke-width:0.305;stroke-miterlimit:10;}
	.st46{fill:none;stroke:url(#SVGID_47_);stroke-width:0.305;stroke-miterlimit:10;}
	.st47{fill:none;stroke:url(#SVGID_48_);stroke-width:0.305;stroke-miterlimit:10;}
	.st48{fill:none;stroke:url(#SVGID_49_);stroke-width:0.305;stroke-miterlimit:10;}
	.st49{fill:none;stroke:url(#SVGID_50_);stroke-width:0.305;stroke-miterlimit:10;}
	.st50{fill:none;stroke:url(#SVGID_51_);stroke-width:0.305;stroke-miterlimit:10;}
	.st51{fill:none;stroke:url(#SVGID_52_);stroke-width:0.305;stroke-miterlimit:10;}
	.st52{fill:none;stroke:url(#SVGID_53_);stroke-width:0.305;stroke-miterlimit:10;}
	.st53{fill:none;stroke:url(#SVGID_54_);stroke-width:0.305;stroke-miterlimit:10;}
	.st54{fill:none;stroke:url(#SVGID_55_);stroke-width:0.305;stroke-miterlimit:10;}
	.st55{fill:none;stroke:url(#SVGID_56_);stroke-width:0.305;stroke-miterlimit:10;}
	.st56{fill:none;stroke:url(#SVGID_57_);stroke-width:0.305;stroke-miterlimit:10;}
</style>
<g>
	<linearGradient id="SVGID_1_" gradientUnits="userSpaceOnUse" x1="619.022" y1="-107.0307" x2="619.022" y2="259.6525">
		<stop  offset="0" style="stop-color:#FFFFFF"/>
		<stop  offset="1" style="stop-color:#F4F4F4"/>
	</linearGradient>
	<path class="st0" d="M-105.5,248c109-85,283-196,485-178s487,242,642,178c190.3-78.6,322-355,322-355"/>
	<linearGradient id="SVGID_2_" gradientUnits="userSpaceOnUse" x1="620.1645" y1="-101.8178" x2="620.1645" y2="258.3355">
		<stop  offset="0" style="stop-color:#FFFFFF"/>
		<stop  offset="1" style="stop-color:#F4F4F4"/>
	</linearGradient>
	<path class="st1" d="M-104,247.2C3.7,163.3,177.8,55.5,379.5,73.4c17.9,1.6,36.3,4.7,55.3,9.2c195.5,45.3,442.5,221.5,584.3,164.4
		c105.3-42,191.3-141,249.5-223.8c48-68.3,75.6-124.9,75.6-124.9"/>
	<linearGradient id="SVGID_3_" gradientUnits="userSpaceOnUse" x1="621.307" y1="-96.6049" x2="621.307" y2="256.8878">
		<stop  offset="0" style="stop-color:#FFFFFF"/>
		<stop  offset="1" style="stop-color:#F4F4F4"/>
	</linearGradient>
	<path class="st2" d="M-102.5,246.4C3.8,163.6,178.1,59,379.5,76.7c17.8,1.6,36.2,4.7,55.1,9c195,44.5,439.6,215.5,582.2,160
		c106.4-41.4,192-136.9,251.3-218.8c48.7-67.2,76.9-123.5,76.9-123.5"/>
	<linearGradient id="SVGID_4_" gradientUnits="userSpaceOnUse" x1="622.4495" y1="-91.3921" x2="622.4495" y2="255.51">
		<stop  offset="0" style="stop-color:#FFFFFF"/>
		<stop  offset="1" style="stop-color:#F4F4F4"/>
	</linearGradient>
	<path class="st3" d="M-100.9,245.6C4,163.9,178.4,62.5,379.5,80.1c17.7,1.6,36.1,4.6,54.9,8.9c194.6,43.7,436.9,209.7,580.1,155.7
		c107.6-40.6,192.7-132.8,253.2-213.9c49.3-66.1,78.2-122.1,78.2-122.1"/>
	<linearGradient id="SVGID_5_" gradientUnits="userSpaceOnUse" x1="623.592" y1="-86.1792" x2="623.592" y2="254.1353">
		<stop  offset="0" style="stop-color:#FFFFFF"/>
		<stop  offset="1" style="stop-color:#F4F4F4"/>
	</linearGradient>
	<path class="st4" d="M-99.4,244.7C4.2,164.2,178.7,66,379.5,83.4c17.7,1.5,35.9,4.6,54.7,8.7c194.1,42.9,434.1,204,578,151.4
		c108.8-39.8,193.4-128.8,255-208.9c50-65,79.4-120.7,79.4-120.7"/>
	<linearGradient id="SVGID_6_" gradientUnits="userSpaceOnUse" x1="624.7346" y1="-80.9664" x2="624.7346" y2="252.7636">
		<stop  offset="0" style="stop-color:#FFFFFF"/>
		<stop  offset="1" style="stop-color:#F4F4F4"/>
	</linearGradient>
	<path class="st5" d="M-97.9,243.9C4.3,164.5,179,69.5,379.5,86.8c17.6,1.5,35.8,4.5,54.4,8.6c193.7,42,431.3,198.3,575.9,147
		c110-39,194.1-124.7,256.8-203.9c50.6-63.9,80.7-119.4,80.7-119.4"/>
	<linearGradient id="SVGID_7_" gradientUnits="userSpaceOnUse" x1="625.877" y1="-75.7536" x2="625.877" y2="251.3951">
		<stop  offset="0" style="stop-color:#FFFFFF"/>
		<stop  offset="1" style="stop-color:#F4F4F4"/>
	</linearGradient>
	<path class="st6" d="M-96.4,243.1C4.5,164.8,179.3,73,379.5,90.2c17.5,1.5,35.7,4.4,54.2,8.4c193.2,41.2,428.6,192.5,573.8,142.7
		c111.2-38.2,194.8-120.7,258.7-199c51.2-62.8,82-118,82-118"/>
	<linearGradient id="SVGID_8_" gradientUnits="userSpaceOnUse" x1="627.0195" y1="-70.5408" x2="627.0195" y2="250.0297">
		<stop  offset="0" style="stop-color:#FFFFFF"/>
		<stop  offset="1" style="stop-color:#F4F4F4"/>
	</linearGradient>
	<path class="st7" d="M-94.9,242.3C4.7,165.1,179.6,76.5,379.5,93.5c17.5,1.5,35.5,4.4,54,8.3c192.7,40.4,425.8,186.8,571.6,138.4
		c112.5-37.4,195.5-116.6,260.5-194c51.9-61.7,83.2-116.6,83.2-116.6"/>
	<linearGradient id="SVGID_9_" gradientUnits="userSpaceOnUse" x1="628.1619" y1="-65.3279" x2="628.1619" y2="248.6675">
		<stop  offset="0" style="stop-color:#FFFFFF"/>
		<stop  offset="1" style="stop-color:#F4F4F4"/>
	</linearGradient>
	<path class="st8" d="M-93.4,241.5C4.8,165.4,179.8,80,379.5,96.9c17.4,1.5,35.4,4.3,53.8,8.1c192.3,39.6,423.1,181.1,569.5,134
		c113.7-36.6,196.1-112.5,262.4-189.1c52.5-60.6,84.5-115.2,84.5-115.2"/>
	<linearGradient id="SVGID_10_" gradientUnits="userSpaceOnUse" x1="629.3044" y1="-60.1151" x2="629.3044" y2="247.3085">
		<stop  offset="0" style="stop-color:#FFFFFF"/>
		<stop  offset="1" style="stop-color:#F4F4F4"/>
	</linearGradient>
	<path class="st9" d="M-91.8,240.6C5,165.7,180.1,83.5,379.5,100.2c17.3,1.5,35.2,4.2,53.6,8c191.8,38.7,420.4,175.4,567.4,129.7
		c114.9-35.7,196.8-108.5,264.2-184.1C1317.7-5.7,1350.4-60,1350.4-60"/>
	<linearGradient id="SVGID_11_" gradientUnits="userSpaceOnUse" x1="630.4468" y1="-54.9023" x2="630.4468" y2="245.9727">
		<stop  offset="0" style="stop-color:#FFFFFF"/>
		<stop  offset="1" style="stop-color:#F4F4F4"/>
	</linearGradient>
	<path class="st10" d="M-90.3,239.8C5.2,166,180.4,87,379.5,103.6c17.3,1.4,35.1,4.2,53.3,7.9c191.3,38.3,417.7,169.7,565.3,125.4
		c116.1-34.9,197.4-104.4,266.1-179.1c53.7-58.4,87-112.5,87-112.5"/>
	<linearGradient id="SVGID_12_" gradientUnits="userSpaceOnUse" x1="631.5892" y1="-49.6895" x2="631.5892" y2="244.6221">
		<stop  offset="0" style="stop-color:#FFFFFF"/>
		<stop  offset="1" style="stop-color:#F4F4F4"/>
	</linearGradient>
	<path class="st11" d="M-88.8,239C5.3,166.3,180.7,90.5,379.5,106.9c17.2,1.4,35,4.1,53.1,7.7c190.8,37.5,414.9,164,563.2,121
		c117.4-34.1,198.1-100.3,267.9-174.2c54.2-57.4,88.3-111.1,88.3-111.1"/>
	<linearGradient id="SVGID_13_" gradientUnits="userSpaceOnUse" x1="632.7317" y1="-44.4767" x2="632.7317" y2="243.275">
		<stop  offset="0" style="stop-color:#FFFFFF"/>
		<stop  offset="1" style="stop-color:#F4F4F4"/>
	</linearGradient>
	<path class="st12" d="M-87.3,238.2C5.5,166.6,181,94,379.5,110.3c17.2,1.4,34.8,4.1,52.9,7.6c190.3,36.7,412.2,158.4,561.1,116.7
		c118.6-33.2,198.7-96.3,269.8-169.2C1318,9,1352.7-44.4,1352.7-44.4"/>
	<linearGradient id="SVGID_14_" gradientUnits="userSpaceOnUse" x1="633.8741" y1="-39.2639" x2="633.8741" y2="241.9313">
		<stop  offset="0" style="stop-color:#FFFFFF"/>
		<stop  offset="1" style="stop-color:#F4F4F4"/>
	</linearGradient>
	<path class="st13" d="M-85.8,237.4C5.7,166.9,181.3,97.5,379.5,113.6c17.1,1.4,34.7,4,52.7,7.4C622,157,841.6,273.8,991.1,233.4
		c119.8-32.4,199.3-92.2,271.6-164.3c55.4-55.2,90.8-108.3,90.8-108.3"/>
	<linearGradient id="SVGID_15_" gradientUnits="userSpaceOnUse" x1="635.0165" y1="-34.0511" x2="635.0165" y2="240.5911">
		<stop  offset="0" style="stop-color:#FFFFFF"/>
		<stop  offset="1" style="stop-color:#F4F4F4"/>
	</linearGradient>
	<path class="st14" d="M-84.3,236.5C5.9,167.2,181.6,101,379.5,117c17,1.4,34.6,4,52.5,7.3c189.4,35.1,406.8,147.1,556.8,108
		c121.1-31.5,199.9-88.2,273.5-159.3c55.9-54.1,92-106.9,92-106.9"/>
	<linearGradient id="SVGID_16_" gradientUnits="userSpaceOnUse" x1="636.1588" y1="-28.8383" x2="636.1588" y2="239.2545">
		<stop  offset="0" style="stop-color:#FFFFFF"/>
		<stop  offset="1" style="stop-color:#F4F4F4"/>
	</linearGradient>
	<path class="st15" d="M-82.7,235.7C6,167.5,181.9,104.5,379.4,120.3c17,1.4,34.4,3.9,52.2,7.1c188.9,34.3,404.1,141.4,554.7,103.7
		c122.3-30.6,200.5-84.1,275.3-154.3c56.5-53,93.3-105.6,93.3-105.6"/>
	<linearGradient id="SVGID_17_" gradientUnits="userSpaceOnUse" x1="637.3012" y1="-23.6255" x2="637.3012" y2="237.9217">
		<stop  offset="0" style="stop-color:#FFFFFF"/>
		<stop  offset="1" style="stop-color:#F4F4F4"/>
	</linearGradient>
	<path class="st16" d="M-81.2,234.9C6.2,167.8,182.2,108,379.4,123.7c16.9,1.4,34.3,3.8,52,7c188.5,33.5,401.4,135.8,552.6,99.4
		c123.6-29.8,201.1-80.1,277.2-149.4c57-52,94.6-104.2,94.6-104.2"/>
	<linearGradient id="SVGID_18_" gradientUnits="userSpaceOnUse" x1="638.4435" y1="-18.4127" x2="638.4435" y2="236.5927">
		<stop  offset="0" style="stop-color:#FFFFFF"/>
		<stop  offset="1" style="stop-color:#F4F4F4"/>
	</linearGradient>
	<path class="st17" d="M-79.7,234.1c86.1-66,262.2-122.6,459.1-107c16.8,1.3,34.1,3.8,51.8,6.8c188,32.7,398.7,130.2,550.5,95
		c124.8-28.9,201.7-76,279-144.4c57.6-50.9,95.8-102.8,95.8-102.8"/>
	<linearGradient id="SVGID_19_" gradientUnits="userSpaceOnUse" x1="639.5859" y1="-13.1999" x2="639.5859" y2="235.2679">
		<stop  offset="0" style="stop-color:#FFFFFF"/>
		<stop  offset="1" style="stop-color:#F4F4F4"/>
	</linearGradient>
	<path class="st18" d="M-78.2,233.2c84.7-64.8,261-118.3,457.6-102.8c16.8,1.3,34,3.7,51.6,6.7c187.5,31.9,396,124.5,548.4,90.7
		c126.1-28,202.2-72,280.8-139.5c58.1-49.9,97.1-101.4,97.1-101.4"/>
	<linearGradient id="SVGID_20_" gradientUnits="userSpaceOnUse" x1="640.7282" y1="-7.9871" x2="640.7282" y2="233.9473">
		<stop  offset="0" style="stop-color:#FFFFFF"/>
		<stop  offset="1" style="stop-color:#F4F4F4"/>
	</linearGradient>
	<path class="st19" d="M-76.7,232.4c83.4-63.7,259.7-113.9,456.1-98.7c16.7,1.3,33.9,3.6,51.4,6.6
		c187.1,31.1,393.3,118.9,546.3,86.4c127.3-27.1,202.8-67.9,282.7-134.5c58.6-48.8,98.3-100,98.3-100"/>
	<linearGradient id="SVGID_21_" gradientUnits="userSpaceOnUse" x1="641.8705" y1="-2.7743" x2="641.8705" y2="232.6312">
		<stop  offset="0" style="stop-color:#FFFFFF"/>
		<stop  offset="1" style="stop-color:#F4F4F4"/>
	</linearGradient>
	<path class="st20" d="M-75.1,231.6C6.9,169,183.4,122,379.4,137.1c16.7,1.3,33.7,3.6,51.1,6.4c186.6,30.3,390.6,113.3,544.1,82
		c128.6-26.2,203.3-63.9,284.5-129.5c59.1-47.8,99.6-98.7,99.6-98.7"/>
	<linearGradient id="SVGID_22_" gradientUnits="userSpaceOnUse" x1="643.0129" y1="2.4385" x2="643.0129" y2="231.3201">
		<stop  offset="0" style="stop-color:#FFFFFF"/>
		<stop  offset="1" style="stop-color:#F4F4F4"/>
	</linearGradient>
	<path class="st21" d="M-73.6,230.8C7,169.3,183.7,125.5,379.4,140.5c16.6,1.3,33.6,3.5,50.9,6.3c186.1,29.5,388,107.7,542,77.7
		c129.9-25.3,203.8-59.9,286.4-124.6c59.6-46.7,100.9-97.3,100.9-97.3"/>
	<linearGradient id="SVGID_23_" gradientUnits="userSpaceOnUse" x1="644.1552" y1="7.6513" x2="644.1552" y2="230.0848">
		<stop  offset="0" style="stop-color:#FFFFFF"/>
		<stop  offset="1" style="stop-color:#F4F4F4"/>
	</linearGradient>
	<path class="st22" d="M-72.1,230C7.2,169.6,184,129,379.4,143.8c16.5,1.3,33.5,3.5,50.7,6.1c185.7,28.7,385.3,102.2,539.9,73.4
		c131.1-24.4,204.4-55.9,288.2-119.6c60.1-45.7,102.1-95.9,102.1-95.9"/>
	<linearGradient id="SVGID_24_" gradientUnits="userSpaceOnUse" x1="645.2974" y1="12.8642" x2="645.2974" y2="229.2634">
		<stop  offset="0" style="stop-color:#FFFFFF"/>
		<stop  offset="1" style="stop-color:#F4F4F4"/>
	</linearGradient>
	<path class="st23" d="M-70.6,229.1c78-59.2,254.8-96.7,450-82c16.5,1.3,33.3,3.4,50.5,6c185.2,27.9,382.6,96.6,537.8,69
		c132.4-23.5,204.9-51.9,290.1-114.7c60.6-44.6,103.4-94.5,103.4-94.5"/>
	<linearGradient id="SVGID_25_" gradientUnits="userSpaceOnUse" x1="646.4397" y1="18.077" x2="646.4397" y2="228.4421">
		<stop  offset="0" style="stop-color:#FFFFFF"/>
		<stop  offset="1" style="stop-color:#F4F4F4"/>
	</linearGradient>
	<path class="st24" d="M-69.1,228.3c76.6-58.1,253.6-92.3,448.5-77.8c16.4,1.2,33.2,3.3,50.3,5.8c184.7,27.1,379.9,91,535.7,64.7
		c133.7-22.6,205.4-47.9,291.9-109.7c61.1-43.6,104.6-93.1,104.6-93.1"/>
	<linearGradient id="SVGID_26_" gradientUnits="userSpaceOnUse" x1="647.582" y1="23.2899" x2="647.582" y2="227.6207">
		<stop  offset="0" style="stop-color:#FFFFFF"/>
		<stop  offset="1" style="stop-color:#F4F4F4"/>
	</linearGradient>
	<path class="st25" d="M-67.6,227.5c75.3-57,252.4-88,447-73.6c16.3,1.2,33,3.3,50,5.7C613.7,185.8,806.7,245,963,219.9
		c134.9-21.7,205.9-43.9,293.8-104.8c61.6-42.6,105.9-91.8,105.9-91.8"/>
	<linearGradient id="SVGID_27_" gradientUnits="userSpaceOnUse" x1="648.7242" y1="28.5028" x2="648.7242" y2="226.7994">
		<stop  offset="0" style="stop-color:#FFFFFF"/>
		<stop  offset="1" style="stop-color:#F4F4F4"/>
	</linearGradient>
	<path class="st26" d="M-66,226.7c73.9-55.9,251.2-83.7,445.4-69.4c16.3,1.2,32.9,3.2,49.8,5.5c183.8,25.4,374.6,79.9,531.5,56
		c136.2-20.7,206.4-40,295.6-99.8c62-41.6,107.2-90.4,107.2-90.4"/>
	<linearGradient id="SVGID_28_" gradientUnits="userSpaceOnUse" x1="649.8665" y1="33.7156" x2="649.8665" y2="225.978">
		<stop  offset="0" style="stop-color:#FFFFFF"/>
		<stop  offset="1" style="stop-color:#F4F4F4"/>
	</linearGradient>
	<path class="st27" d="M-64.5,225.9c72.6-54.8,249.9-79.4,443.9-65.3c16.2,1.2,32.8,3.1,49.6,5.4c183.4,24.6,371.9,74.4,529.3,51.7
		c137.5-19.8,206.9-36,297.5-94.8c62.5-40.6,108.4-89,108.4-89"/>
	<linearGradient id="SVGID_29_" gradientUnits="userSpaceOnUse" x1="651.0088" y1="38.9285" x2="651.0088" y2="225.1567">
		<stop  offset="0" style="stop-color:#FFFFFF"/>
		<stop  offset="1" style="stop-color:#F4F4F4"/>
	</linearGradient>
	<path class="st28" d="M-63,225c71.2-53.6,248.7-75.1,442.4-61.1c16.2,1.2,32.6,3.1,49.4,5.2C611.7,193,798,238,956,216.5
		c138.7-18.8,207.4-32,299.3-89.9C1318.3,87.1,1365,39,1365,39"/>
	<linearGradient id="SVGID_30_" gradientUnits="userSpaceOnUse" x1="652.151" y1="44.1415" x2="652.151" y2="224.3353">
		<stop  offset="0" style="stop-color:#FFFFFF"/>
		<stop  offset="1" style="stop-color:#F4F4F4"/>
	</linearGradient>
	<path class="st29" d="M-61.5,224.2c69.9-52.5,247.5-70.7,440.9-56.9c16.1,1.2,32.5,3,49.2,5.1c182.4,23,366.5,63.3,525.1,43
		c140-17.9,207.9-28.1,301.2-84.9c63.4-38.6,111-86.2,111-86.2"/>
	<linearGradient id="SVGID_31_" gradientUnits="userSpaceOnUse" x1="653.2932" y1="49.3544" x2="653.2932" y2="223.514">
		<stop  offset="0" style="stop-color:#FFFFFF"/>
		<stop  offset="1" style="stop-color:#F4F4F4"/>
	</linearGradient>
	<path class="st30" d="M-60,223.4C8.5,172,186.3,157,379.4,170.6c16,1.2,32.4,2.9,48.9,5c182,22.2,363.9,57.8,523,38.7
		c141.3-16.9,208.3-24.2,303-80c63.9-37.6,112.2-84.9,112.2-84.9"/>
	<linearGradient id="SVGID_32_" gradientUnits="userSpaceOnUse" x1="654.4355" y1="54.5674" x2="654.4355" y2="222.6927">
		<stop  offset="0" style="stop-color:#FFFFFF"/>
		<stop  offset="1" style="stop-color:#F4F4F4"/>
	</linearGradient>
	<path class="st31" d="M-58.4,222.6c67.2-50.3,245-62.1,437.8-48.6c16,1.1,32.2,2.9,48.7,4.8c181.5,21.3,361.2,52.2,520.9,34.3
		c142.5-16,208.8-20.2,304.8-75c64.3-36.7,113.5-83.5,113.5-83.5"/>
	<linearGradient id="SVGID_33_" gradientUnits="userSpaceOnUse" x1="655.5777" y1="59.7803" x2="655.5777" y2="221.8713">
		<stop  offset="0" style="stop-color:#FFFFFF"/>
		<stop  offset="1" style="stop-color:#F4F4F4"/>
	</linearGradient>
	<path class="st32" d="M-56.9,221.7c65.8-49.2,243.8-57.8,436.3-44.4c15.9,1.1,32.1,2.8,48.5,4.7c181.1,20.5,358.5,46.7,518.8,30
		c143.8-15,209.2-16.3,306.7-70c64.8-35.7,114.7-82.1,114.7-82.1"/>
	<linearGradient id="SVGID_34_" gradientUnits="userSpaceOnUse" x1="656.7199" y1="64.9933" x2="656.7199" y2="221.05">
		<stop  offset="0" style="stop-color:#FFFFFF"/>
		<stop  offset="1" style="stop-color:#F4F4F4"/>
	</linearGradient>
	<path class="st33" d="M-55.4,220.9c64.5-48,242.6-53.5,434.8-40.2c15.8,1.1,32,2.7,48.3,4.5c180.6,19.7,355.8,41.2,516.6,25.7
		c145.1-14,209.7-12.4,308.5-65.1c65.2-34.7,116-80.7,116-80.7"/>
	<linearGradient id="SVGID_35_" gradientUnits="userSpaceOnUse" x1="657.8621" y1="70.2063" x2="657.8621" y2="220.2287">
		<stop  offset="0" style="stop-color:#FFFFFF"/>
		<stop  offset="1" style="stop-color:#F4F4F4"/>
	</linearGradient>
	<path class="st34" d="M-53.9,220.1c63.1-46.9,241.4-49.1,433.3-36c15.8,1.1,31.8,2.7,48,4.4c180.1,18.9,353.2,35.7,514.5,21.3
		c146.3-13,210.2-8.5,310.4-60.1c65.7-33.8,117.3-79.4,117.3-79.4"/>
	<linearGradient id="SVGID_36_" gradientUnits="userSpaceOnUse" x1="659.0043" y1="75.4193" x2="659.0043" y2="219.4074">
		<stop  offset="0" style="stop-color:#FFFFFF"/>
		<stop  offset="1" style="stop-color:#F4F4F4"/>
	</linearGradient>
	<path class="st35" d="M-52.4,219.3c61.8-45.8,240.1-44.8,431.8-31.9c15.7,1.1,31.7,2.6,47.8,4.2c179.7,18,350.5,30.2,512.4,17
		c147.6-12.1,210.6-4.7,312.2-55.2c66.1-32.8,118.5-78,118.5-78"/>
	<linearGradient id="SVGID_37_" gradientUnits="userSpaceOnUse" x1="660.1465" y1="80.6324" x2="660.1465" y2="218.5861">
		<stop  offset="0" style="stop-color:#FFFFFF"/>
		<stop  offset="1" style="stop-color:#F4F4F4"/>
	</linearGradient>
	<path class="st36" d="M-50.9,218.5c60.4-44.7,238.9-40.5,430.2-27.7c15.7,1.1,31.5,2.5,47.6,4.1c179.2,17.2,347.8,24.7,510.3,12.7
		c148.9-11.1,211.1-0.8,314.1-50.2c66.5-31.9,119.8-76.6,119.8-76.6"/>
	<linearGradient id="SVGID_38_" gradientUnits="userSpaceOnUse" x1="661.2888" y1="85.8455" x2="661.2888" y2="217.7648">
		<stop  offset="0" style="stop-color:#FFFFFF"/>
		<stop  offset="1" style="stop-color:#F4F4F4"/>
	</linearGradient>
	<path class="st37" d="M-49.3,217.6c59.1-43.6,237.7-36.2,428.7-23.5c15.6,1.1,31.4,2.5,47.4,3.9c178.8,16.4,345.1,19.3,508.2,8.3
		c150.1-10.1,211.5,3,315.9-45.2c67-31,121-75.2,121-75.2"/>
	<linearGradient id="SVGID_39_" gradientUnits="userSpaceOnUse" x1="662.431" y1="91.0586" x2="662.431" y2="216.9435">
		<stop  offset="0" style="stop-color:#FFFFFF"/>
		<stop  offset="1" style="stop-color:#F4F4F4"/>
	</linearGradient>
	<path class="st38" d="M-47.8,216.8c57.7-42.4,236.5-31.9,427.2-19.3c15.5,1,31.3,2.4,47.2,3.8c178.3,15.5,342.5,13.8,506.1,4
		c151.4-9,211.9,6.9,317.8-40.3c67.4-30,122.3-73.8,122.3-73.8"/>
	<linearGradient id="SVGID_40_" gradientUnits="userSpaceOnUse" x1="663.5732" y1="96.2717" x2="663.5732" y2="216.1221">
		<stop  offset="0" style="stop-color:#FFFFFF"/>
		<stop  offset="1" style="stop-color:#F4F4F4"/>
	</linearGradient>
	<path class="st39" d="M-46.3,216c56.4-41.3,235.2-27.6,425.7-15.2c15.5,1,31.1,2.4,46.9,3.7c177.8,14.7,339.8,8.3,504-0.3
		c152.7-8,212.4,10.7,319.6-35.3c67.9-29.1,123.6-72.5,123.6-72.5"/>
	<linearGradient id="SVGID_41_" gradientUnits="userSpaceOnUse" x1="664.7154" y1="101.4848" x2="664.7154" y2="215.3009">
		<stop  offset="0" style="stop-color:#FFFFFF"/>
		<stop  offset="1" style="stop-color:#F4F4F4"/>
	</linearGradient>
	<path class="st40" d="M-44.8,215.2c55-40.2,234-23.2,424.1-11c15.4,1,31,2.3,46.7,3.5c177.4,13.8,337.1,2.8,501.8-4.7
		c153.9-7,212.8,14.5,321.5-30.4c68.3-28.2,124.8-71.1,124.8-71.1"/>
	<linearGradient id="SVGID_42_" gradientUnits="userSpaceOnUse" x1="665.8576" y1="106.698" x2="665.8576" y2="216.0702">
		<stop  offset="0" style="stop-color:#FFFFFF"/>
		<stop  offset="1" style="stop-color:#F4F4F4"/>
	</linearGradient>
	<path class="st41" d="M-43.3,214.4c53.7-39.1,232.8-18.9,422.6-6.8c15.3,1,30.9,2.2,46.5,3.4c176.9,13,334.4-2.6,499.7-9
		c155.2-6,213.3,18.3,323.3-25.4c68.7-27.3,126.1-69.7,126.1-69.7"/>
	<linearGradient id="SVGID_43_" gradientUnits="userSpaceOnUse" x1="666.9998" y1="111.9112" x2="666.9998" y2="218.0835">
		<stop  offset="0" style="stop-color:#FFFFFF"/>
		<stop  offset="1" style="stop-color:#F4F4F4"/>
	</linearGradient>
	<path class="st42" d="M-41.8,213.5c52.3-38,231.6-14.6,421.1-2.6c15.3,1,30.7,2.1,46.3,3.2c176.5,12.1,331.7-8.1,497.6-13.3
		c156.5-5,213.7,22.1,325.2-20.4c69.2-26.4,127.3-68.3,127.3-68.3"/>
	<linearGradient id="SVGID_44_" gradientUnits="userSpaceOnUse" x1="668.142" y1="117.1244" x2="668.142" y2="220.3911">
		<stop  offset="0" style="stop-color:#FFFFFF"/>
		<stop  offset="1" style="stop-color:#F4F4F4"/>
	</linearGradient>
	<path class="st43" d="M-40.2,212.7c51-36.8,230.3-10.3,419.6,1.5c15.2,1,30.6,2.1,46.1,3.1c176,11.3,329-13.5,495.5-17.7
		c157.7-3.9,214.1,25.9,327-15.5c69.6-25.5,128.6-66.9,128.6-66.9"/>
	<linearGradient id="SVGID_45_" gradientUnits="userSpaceOnUse" x1="669.2842" y1="122.3376" x2="669.2842" y2="222.9117">
		<stop  offset="0" style="stop-color:#FFFFFF"/>
		<stop  offset="1" style="stop-color:#F4F4F4"/>
	</linearGradient>
	<path class="st44" d="M-38.7,211.9c49.6-35.7,229.1-6,418.1,5.7c15.1,0.9,30.5,2,45.8,2.9c175.5,10.4,326.4-19,493.4-22
		c159-2.9,214.6,29.7,328.8-10.5c70.1-24.6,129.9-65.6,129.9-65.6"/>
	<linearGradient id="SVGID_46_" gradientUnits="userSpaceOnUse" x1="670.4265" y1="127.5509" x2="670.4265" y2="225.5886">
		<stop  offset="0" style="stop-color:#FFFFFF"/>
		<stop  offset="1" style="stop-color:#F4F4F4"/>
	</linearGradient>
	<path class="st45" d="M-37.2,211.1c48.3-34.6,227.9-1.6,416.5,9.9c15.1,0.9,30.3,1.9,45.6,2.8c175.1,9.6,323.7-24.4,491.3-26.3
		c160.2-1.8,215,33.4,330.7-5.6c70.5-23.8,131.1-64.2,131.1-64.2"/>
	<linearGradient id="SVGID_47_" gradientUnits="userSpaceOnUse" x1="671.5687" y1="132.7642" x2="671.5687" y2="228.3097">
		<stop  offset="0" style="stop-color:#FFFFFF"/>
		<stop  offset="1" style="stop-color:#F4F4F4"/>
	</linearGradient>
	<path class="st46" d="M-35.7,210.2c46.9-33.5,226.7,2.7,415,14.1c15,0.9,30.2,1.9,45.4,2.6c174.6,8.7,321-32.6,489.2-30.7
		c161.5,1.9,215.4,37.2,332.5-0.6c71-22.9,132.4-62.8,132.4-62.8"/>
	<linearGradient id="SVGID_48_" gradientUnits="userSpaceOnUse" x1="672.7109" y1="137.9775" x2="672.7109" y2="231.2193">
		<stop  offset="0" style="stop-color:#FFFFFF"/>
		<stop  offset="1" style="stop-color:#F4F4F4"/>
	</linearGradient>
	<path class="st47" d="M-34.2,209.4c45.6-32.4,225.4,7,413.5,18.2c15,0.9,30,1.8,45.2,2.5c174.2,7.9,318.3-37.8,487-35
		c162.7,2.7,215.9,40.9,334.4,4.4c71.4-22,133.7-61.4,133.7-61.4"/>
	<linearGradient id="SVGID_49_" gradientUnits="userSpaceOnUse" x1="673.8531" y1="143.1908" x2="673.8531" y2="234.2183">
		<stop  offset="0" style="stop-color:#FFFFFF"/>
		<stop  offset="1" style="stop-color:#F4F4F4"/>
	</linearGradient>
	<path class="st48" d="M-32.6,208.6c44.2-31.2,224.2,11.3,412,22.4c14.9,0.9,29.9,1.7,45,2.4c173.7,7,315.6-40.7,484.9-39.3
		c164,1.3,216.3,44.6,336.2,9.3c71.9-21.1,134.9-60,134.9-60"/>
	<linearGradient id="SVGID_50_" gradientUnits="userSpaceOnUse" x1="674.9954" y1="148.4042" x2="674.9954" y2="237.2265">
		<stop  offset="0" style="stop-color:#FFFFFF"/>
		<stop  offset="1" style="stop-color:#F4F4F4"/>
	</linearGradient>
	<path class="st49" d="M-31.1,207.8c42.9-30.1,223,15.6,410.5,26.6c14.8,0.9,29.8,1.7,44.7,2.2c173.2,6.1,312.9-46.1,482.8-43.7
		c165.3,2.4,216.8,48.3,338.1,14.3c72.3-20.3,136.2-58.7,136.2-58.7"/>
	<linearGradient id="SVGID_51_" gradientUnits="userSpaceOnUse" x1="676.1377" y1="153.6176" x2="676.1377" y2="240.2413">
		<stop  offset="0" style="stop-color:#FFFFFF"/>
		<stop  offset="1" style="stop-color:#F4F4F4"/>
	</linearGradient>
	<path class="st50" d="M-29.6,207c41.5-29,221.8,20,408.9,30.8c14.8,0.9,29.6,1.6,44.5,2.1c172.8,4.9,310.2-51.6,480.7-48
		c166.5,3.5,217.2,52,339.9,19.2c72.8-19.4,137.4-57.3,137.4-57.3"/>
	<linearGradient id="SVGID_52_" gradientUnits="userSpaceOnUse" x1="677.28" y1="158.831" x2="677.28" y2="243.3428">
		<stop  offset="0" style="stop-color:#FFFFFF"/>
		<stop  offset="1" style="stop-color:#F4F4F4"/>
	</linearGradient>
	<path class="st51" d="M-28.1,206.1c40.2-27.9,220.5,24.3,407.4,34.9c14.7,0.8,29.5,1.5,44.3,1.9c172.3,4.1,307.5-57,478.6-52.3
		c167.8,4.5,217.7,55.7,341.8,24.2c73.2-18.6,138.7-55.9,138.7-55.9"/>
	<linearGradient id="SVGID_53_" gradientUnits="userSpaceOnUse" x1="678.4223" y1="164.0444" x2="678.4223" y2="246.4722">
		<stop  offset="0" style="stop-color:#FFFFFF"/>
		<stop  offset="1" style="stop-color:#F4F4F4"/>
	</linearGradient>
	<path class="st52" d="M-26.6,205.3c38.8-26.8,219.3,28.6,405.9,39.1c14.6,0.8,29.4,1.5,44.1,1.8c171.9,3.3,304.8-62.4,476.5-56.7
		c169,5.6,218.1,59.4,343.6,29.2c73.7-17.7,140-54.5,140-54.5"/>
	<linearGradient id="SVGID_54_" gradientUnits="userSpaceOnUse" x1="679.5646" y1="169.2579" x2="679.5646" y2="249.6246">
		<stop  offset="0" style="stop-color:#FFFFFF"/>
		<stop  offset="1" style="stop-color:#F4F4F4"/>
	</linearGradient>
	<path class="st53" d="M-25.1,204.5c37.5-25.6,218.1,32.9,404.4,43.3c14.6,0.8,29.2,1.4,43.9,1.6c171.4,2.5,302.1-67.8,474.3-61
		c170.3,6.7,218.6,63.1,345.5,34.1c74.1-16.9,141.2-53.1,141.2-53.1"/>
	<linearGradient id="SVGID_55_" gradientUnits="userSpaceOnUse" x1="680.707" y1="174.4714" x2="680.707" y2="252.7966">
		<stop  offset="0" style="stop-color:#FFFFFF"/>
		<stop  offset="1" style="stop-color:#F4F4F4"/>
	</linearGradient>
	<path class="st54" d="M-23.5,203.7c36.1-24.5,216.9,37.2,402.8,47.5c14.5,0.8,29.1,1.3,43.6,1.5c170.9,1.6,299.4-72.9,472.2-65.3
		c171.5,8.1,219.1,66.7,347.3,39.1c74.6-16.1,142.5-51.8,142.5-51.8"/>
	<linearGradient id="SVGID_56_" gradientUnits="userSpaceOnUse" x1="681.8493" y1="179.6849" x2="681.8493" y2="255.9849">
		<stop  offset="0" style="stop-color:#FFFFFF"/>
		<stop  offset="1" style="stop-color:#F4F4F4"/>
	</linearGradient>
	<path class="st55" d="M-22,202.9c34.8-23.4,215.6,41.6,401.3,51.6c14.5,0.8,29,1.3,43.4,1.3c170.5,0.8,296.7-78.4,470.1-69.7
		c172.8,9.1,219.5,70.4,349.2,44c75.1-15.2,143.7-50.4,143.7-50.4"/>
	<linearGradient id="SVGID_57_" gradientUnits="userSpaceOnUse" x1="682.9917" y1="184.0555" x2="682.9917" y2="259.1874">
		<stop  offset="0" style="stop-color:#FFFFFF"/>
		<stop  offset="1" style="stop-color:#F4F4F4"/>
	</linearGradient>
	<path class="st56" d="M-20.5,202c36-24,243.4,57,443,57c170,0,294-84,468-74s220,74,351,49c75.5-14.4,145-49,145-49"/>
</g>
</svg>
